# xmcd
#
# Track frame offsets:
#	150
#	15099
#	29483
#	50789
#	67393
#	93930
#	109889
#	130553
#	159042
#	185463
#
# Disc length: 2842 seconds
#
# Revision: 1
# Processed by: cddbd v1.5.2PL0 Copyright (c) Steve Scherf et al.
# Submitted via: audiograbber 1.83.01
#
DISCID=7b0b180a
DTITLE=Ry Cooder - Get Rhythm
DYEAR=1987
DGENRE=Blues
TTITLE0=Get Rhythm
TTITLE1=Low-Commotion
TTITLE2=Going Back To Okinawa
TTITLE3=13 Question Method
TTITLE4=Women Will Rule The World
TTITLE5=All Shook Up
TTITLE6=I Can Tell By The Way You Smell
TTITLE7=Across The Borderline
TTITLE8=Lets Have A Ball
TTITLE9=So Many Roads
EXTD=
EXTT0=
EXTT1=
EXTT2=
EXTT3=
EXTT4=
EXTT5=
EXTT6=
EXTT7=
EXTT8=
EXTT9=Bonus Track: By John Mayall
PLAYORDER=
